<?xml version="1.0" encoding="utf-8"?><svg viewBox="0 0 15 20" xmlns="http://www.w3.org/2000/svg" xmlns:xlink="http://www.w3.org/1999/xlink"><style>:root>svg{display:none}:root>svg:target{display:block}</style><svg fill="none" viewBox="0 0 12 20" id="attach" xmlns="http://www.w3.org/2000/svg"><path opacity=".4" fill-rule="evenodd" clip-rule="evenodd" d="M0 3.75C0 1.679 2.015 0 4.5 0S9 1.679 9 3.75V15c0 1.38-1.343 2.5-3 2.5S3 16.38 3 15V5h1.5v10c0 .69.672 1.25 1.5 1.25s1.5-.56 1.5-1.25V3.75c0-1.38-1.343-2.5-3-2.5s-3 1.12-3 2.5V15c0 2.071 2.015 3.75 4.5 3.75s4.5-1.679 4.5-3.75V2.5H12v13.125C11.63 18.091 9.06 20 6 20s-5.63-1.91-6-4.375V3.75z" fill="#000"/></svg><svg fill="none" viewBox="0 0 14 14" id="bell" xmlns="http://www.w3.org/2000/svg"><path opacity=".4" fill-rule="evenodd" clip-rule="evenodd" d="M9.275 12.133A2.325 2.325 0 017 14a2.325 2.325 0 01-2.275-1.867H.5L2.357 8.4V4.667C2.357 2.089 4.436 0 7 0c2.564 0 4.643 2.09 4.643 4.667V8.4l1.857 3.733H9.275zM7 13.067a1.39 1.39 0 001.308-.934H5.693A1.39 1.39 0 007 13.067zM10.714 8.4V4.667C10.714 2.605 9.051.933 7 .933S3.286 2.605 3.286 4.667V8.4l-1.393 2.8h10.214l-1.393-2.8z" fill="#000"/></svg><svg fill="none" viewBox="0 0 14 14" id="plus" xmlns="http://www.w3.org/2000/svg"><path opacity=".4" fill-rule="evenodd" clip-rule="evenodd" d="M13 8H8v5a1 1 0 01-2 0V8H1a1 1 0 110-2h5V1a1 1 0 012 0v5h5a1 1 0 110 2z" fill="#fff"/></svg><svg fill="none" viewBox="0 0 15 14" id="search" xmlns="http://www.w3.org/2000/svg"><path opacity=".5" fill-rule="evenodd" clip-rule="evenodd" d="M14.364 13.866a.458.458 0 01-.64 0l-3.629-3.57A5.92 5.92 0 016.39 11.59C3.137 11.59.5 8.996.5 5.795.5 2.595 3.137 0 6.39 0c3.252 0 5.889 2.595 5.889 5.795A5.716 5.716 0 0110.75 9.68l3.614 3.556a.441.441 0 010 .631zM6.389.892c-2.752 0-4.983 2.195-4.983 4.903 0 2.708 2.23 4.904 4.983 4.904 2.752 0 4.982-2.196 4.982-4.904 0-2.708-2.23-4.903-4.982-4.903z" fill="#000"/></svg><svg fill="none" viewBox="0 0 14 15" id="settings" xmlns="http://www.w3.org/2000/svg"><path opacity=".6" fill-rule="evenodd" clip-rule="evenodd" d="M13.537 5.85l-1.084.63c.06.332.1.67.1 1.02s-.04.688-.1 1.02l1.084.63a.938.938 0 01.339 1.275l-.926 1.617a.922.922 0 01-1.264.341l-1.095-.637a5.539 5.539 0 01-1.74 1.029v.792a.93.93 0 01-.925.933H6.074a.93.93 0 01-.925-.933v-.792a5.54 5.54 0 01-1.74-1.03l-1.095.638a.922.922 0 01-1.264-.341l-.926-1.617a.938.938 0 01.34-1.275l1.083-.63a5.63 5.63 0 01-.1-1.02c0-.35.04-.688.1-1.02L.463 5.85a.938.938 0 01-.339-1.275l.926-1.617a.921.921 0 011.264-.341l1.095.637a5.535 5.535 0 011.74-1.029v-.792A.93.93 0 016.074.5h1.852a.93.93 0 01.925.933v.792c.647.231 1.228.59 1.74 1.03l1.095-.638a.921.921 0 011.264.341l.926 1.617a.938.938 0 01-.34 1.275zm-.694-1.213l-.463-.808a.46.46 0 00-.632-.17l-1.286.748a4.611 4.611 0 00-2.536-1.48V1.9a.465.465 0 00-.463-.467h-.926a.465.465 0 00-.463.467v1.027a4.61 4.61 0 00-2.536 1.48l-1.286-.749a.46.46 0 00-.632.171l-.463.808a.469.469 0 00.17.638l1.29.752A4.67 4.67 0 002.373 7.5c0 .517.092 1.01.246 1.474l-1.291.751a.469.469 0 00-.17.638l.463.808c.128.223.411.3.632.17l1.286-.748a4.611 4.611 0 002.536 1.48V13.1c0 .258.208.467.463.467h.926a.465.465 0 00.463-.467v-1.027a4.611 4.611 0 002.536-1.48l1.286.749a.46.46 0 00.632-.171l.463-.808a.469.469 0 00-.17-.638l-1.29-.751c.153-.465.245-.957.245-1.474 0-.516-.092-1.01-.246-1.473l1.291-.752a.469.469 0 00.17-.638zM7 9.833A2.324 2.324 0 014.686 7.5 2.324 2.324 0 017 5.167 2.324 2.324 0 019.314 7.5 2.324 2.324 0 017 9.833zM7 6.1c-.767 0-1.388.627-1.388 1.4 0 .773.621 1.4 1.388 1.4.767 0 1.388-.627 1.388-1.4 0-.773-.621-1.4-1.388-1.4z" fill="#fff"/></svg><svg fill="none" viewBox="0 0 15 14" id="star" xmlns="http://www.w3.org/2000/svg"><path opacity=".4" fill-rule="evenodd" clip-rule="evenodd" d="M11.006 8.934L11.834 14 7.5 11.607 3.166 14l.828-5.066L.5 5.357l4.83-.737L7.5 0l2.17 4.62 4.83.737-3.494 3.577zM9.128 5.389L7.5 1.887 5.857 5.389l-3.785.492L4.87 8.737l-.62 3.677 3.25-1.822 3.21 1.836-.58-3.677 2.77-2.827-3.772-.535z" fill="#000"/></svg><svg fill="none" viewBox="0 0 10 14" id="user" xmlns="http://www.w3.org/2000/svg"><path opacity=".4" fill-rule="evenodd" clip-rule="evenodd" d="M7.409 13.5H3.091C1.66 13.5.5 12.409.5 11.062V9.438c0-1.068.734-1.965 1.749-2.295a4.158 4.158 0 01-.885-2.58C1.364 2.319 3.104.5 5.25.5s3.886 1.819 3.886 4.063c0 .98-.332 1.878-.885 2.58C9.266 7.473 10 8.37 10 9.438v1.624C10 12.41 8.84 13.5 7.409 13.5zm.864-8.937c0-1.795-1.354-3.25-3.023-3.25-1.67 0-3.023 1.455-3.023 3.25 0 1.794 1.354 3.25 3.023 3.25 1.67 0 3.023-1.456 3.023-3.25zm.863 5.078c0-.864-.696-1.583-1.63-1.775a3.751 3.751 0 01-2.256.759c-.842 0-1.62-.283-2.256-.759-.934.192-1.63.911-1.63 1.775v1.218c0 1.01.949 1.829 2.12 1.829h3.533c1.17 0 2.12-.819 2.12-1.829V9.641z" fill="#000"/></svg><svg fill="none" viewBox="0 0 14 20" id="voice" xmlns="http://www.w3.org/2000/svg"><path opacity=".4" fill-rule="evenodd" clip-rule="evenodd" d="M5.523 20a.62.62 0 01-.614-.625.62.62 0 01.614-.625h.613v-1.278C3.106 17.193.542 14.874 0 11.875h1.227c.559 2.504 2.895 4.375 5.523 4.375 2.628 0 4.964-1.87 5.523-4.375H13.5c-.542 3-3.107 5.319-6.136 5.597v1.278h.613a.62.62 0 01.614.625.62.62 0 01-.614.625H5.523zm1.227-5c-2.372 0-4.295-1.959-4.295-4.375v-6.25C2.455 1.96 4.378 0 6.75 0s4.296 1.959 4.296 4.375v6.25C11.046 13.041 9.122 15 6.75 15zM9.818 4.375c0-1.726-1.373-3.125-3.068-3.125-1.694 0-3.068 1.4-3.068 3.125v6.25c0 1.726 1.374 3.125 3.068 3.125 1.695 0 3.068-1.399 3.068-3.125v-6.25z" fill="#000"/></svg></svg>